<svg width="85" height="31" viewBox="0 0 85 31" fill="none" xmlns="http://www.w3.org/2000/svg">
<path d="M0.840881 27.7696V16.634H7.74627V18.0803H2.52101V21.4732H7.25148V22.9141H2.52101V27.7696H0.840881Z" fill="#292929"/>
<path d="M12.5153 27.9381C11.6924 27.9381 10.9838 27.7623 10.3893 27.4107C9.79844 27.0555 9.34171 26.5571 9.0191 25.9155C8.70011 25.2702 8.54061 24.5144 8.54061 23.6481C8.54061 22.7926 8.70011 22.0386 9.0191 21.3862C9.34171 20.7337 9.79119 20.2244 10.3676 19.8583C10.9475 19.4922 11.6254 19.3091 12.4011 19.3091C12.8723 19.3091 13.3291 19.387 13.7713 19.5429C14.2135 19.6988 14.6105 19.9435 14.9621 20.277C15.3137 20.6104 15.591 21.0436 15.794 21.5765C15.997 22.1057 16.0985 22.7491 16.0985 23.5067V24.0831H9.45952V22.8651H14.5053C14.5053 22.4374 14.4184 22.0586 14.2444 21.7287C14.0704 21.3952 13.8257 21.1324 13.5103 20.9403C13.1986 20.7482 12.8325 20.6521 12.412 20.6521C11.9552 20.6521 11.5565 20.7645 11.2158 20.9892C10.8787 21.2104 10.6177 21.5003 10.4328 21.8592C10.2516 22.2144 10.1609 22.6005 10.1609 23.0174V23.9689C10.1609 24.5271 10.2588 25.002 10.4545 25.3935C10.6539 25.785 10.9312 26.084 11.2865 26.2906C11.6417 26.4936 12.0567 26.5951 12.5316 26.5951C12.8397 26.5951 13.1206 26.5516 13.3744 26.4646C13.6281 26.374 13.8474 26.2399 14.0323 26.0623C14.2172 25.8846 14.3585 25.6653 14.4564 25.4043L15.9952 25.6816C15.8719 26.1348 15.6508 26.5317 15.3318 26.8724C15.0165 27.2095 14.6195 27.4723 14.141 27.6608C13.6662 27.8457 13.1243 27.9381 12.5153 27.9381Z" fill="#292929"/>
<path d="M19.375 16.634V27.7696H17.7492V16.634H19.375Z" fill="#292929"/>
<path d="M23.0348 16.634V27.7696H21.409V16.634H23.0348Z" fill="#292929"/>
<path d="M28.5867 27.9381C27.8038 27.9381 27.1205 27.7587 26.5369 27.3998C25.9533 27.041 25.5002 26.5389 25.1776 25.8937C24.8549 25.2485 24.6936 24.4945 24.6936 23.6318C24.6936 22.7654 24.8549 22.0078 25.1776 21.359C25.5002 20.7101 25.9533 20.2063 26.5369 19.8474C27.1205 19.4885 27.8038 19.3091 28.5867 19.3091C29.3697 19.3091 30.053 19.4885 30.6366 19.8474C31.2202 20.2063 31.6733 20.7101 31.9959 21.359C32.3186 22.0078 32.4799 22.7654 32.4799 23.6318C32.4799 24.4945 32.3186 25.2485 31.9959 25.8937C31.6733 26.5389 31.2202 27.041 30.6366 27.3998C30.053 27.7587 29.3697 27.9381 28.5867 27.9381ZM28.5922 26.5734C29.0997 26.5734 29.5202 26.4392 29.8536 26.171C30.1871 25.9028 30.4336 25.5457 30.5931 25.0999C30.7562 24.654 30.8378 24.1628 30.8378 23.6263C30.8378 23.0935 30.7562 22.6041 30.5931 22.1583C30.4336 21.7088 30.1871 21.3481 29.8536 21.0762C29.5202 20.8044 29.0997 20.6684 28.5922 20.6684C28.0811 20.6684 27.657 20.8044 27.3199 21.0762C26.9864 21.3481 26.7381 21.7088 26.5749 22.1583C26.4154 22.6041 26.3357 23.0935 26.3357 23.6263C26.3357 24.1628 26.4154 24.654 26.5749 25.0999C26.7381 25.5457 26.9864 25.9028 27.3199 26.171C27.657 26.4392 28.0811 26.5734 28.5922 26.5734Z" fill="#292929"/>
<path d="M35.6979 27.7696L33.2402 19.4179H34.9204L36.557 25.5512H36.6385L38.2806 19.4179H39.9607L41.5919 25.524H41.6735L43.2993 19.4179H44.9794L42.5272 27.7696H40.8688L39.1723 21.7396H39.0473L37.3508 27.7696H35.6979Z" fill="#292929"/>
<path d="M52.6275 21.4569L51.154 21.7178C51.0923 21.5293 50.9945 21.3499 50.8603 21.1795C50.7298 21.0092 50.5522 20.8696 50.3275 20.7609C50.1027 20.6521 49.8218 20.5978 49.4847 20.5978C49.0243 20.5978 48.6401 20.7011 48.332 20.9077C48.0239 21.1107 47.8698 21.3735 47.8698 21.6961C47.8698 21.9752 47.9731 22.2 48.1797 22.3703C48.3864 22.5407 48.7198 22.6802 49.1802 22.789L50.5069 23.0935C51.2754 23.2711 51.8481 23.5448 52.2251 23.9145C52.6021 24.2843 52.7906 24.7646 52.7906 25.3554C52.7906 25.8556 52.6456 26.3015 52.3556 26.693C52.0692 27.0809 51.6687 27.3853 51.154 27.6065C50.6428 27.8276 50.0502 27.9381 49.376 27.9381C48.4407 27.9381 47.6777 27.7388 47.0868 27.34C46.496 26.9377 46.1335 26.3667 45.9994 25.6273L47.5708 25.388C47.6686 25.7976 47.8698 26.1076 48.1743 26.3178C48.4788 26.5244 48.8757 26.6277 49.3651 26.6277C49.8979 26.6277 50.3239 26.5172 50.6428 26.2961C50.9618 26.0713 51.1213 25.7976 51.1213 25.475C51.1213 25.214 51.0235 24.9947 50.8277 24.8171C50.6356 24.6395 50.3402 24.5054 49.9414 24.4148L48.5277 24.1048C47.7484 23.9272 47.172 23.6445 46.7987 23.2566C46.4289 22.8687 46.2441 22.3776 46.2441 21.7831C46.2441 21.2901 46.3818 20.8587 46.6573 20.489C46.9328 20.1193 47.3134 19.8311 47.7991 19.6245C48.2849 19.4142 48.8413 19.3091 49.4684 19.3091C50.371 19.3091 51.0815 19.5049 51.5998 19.8963C52.1182 20.2842 52.4607 20.8044 52.6275 21.4569Z" fill="#292929"/>
<path d="M56.0508 22.8107V27.7696H54.425V16.634H56.029V20.7772H56.1323C56.3281 20.3277 56.6271 19.9707 57.0295 19.706C57.4318 19.4414 57.9574 19.3091 58.6063 19.3091C59.179 19.3091 59.6793 19.4269 60.107 19.6625C60.5383 19.8982 60.8718 20.2498 61.1075 20.7174C61.3467 21.1814 61.4663 21.7613 61.4663 22.4573V27.7696H59.8406V22.6531C59.8406 22.0405 59.6829 21.5656 59.3675 21.2285C59.0521 20.8877 58.6135 20.7174 58.0517 20.7174C57.6674 20.7174 57.3231 20.7989 57.0186 20.9621C56.7177 21.1252 56.4803 21.3644 56.3063 21.6798C56.1359 21.9915 56.0508 22.3685 56.0508 22.8107Z" fill="#292929"/>
<path d="M63.4827 27.7696V19.4179H65.1084V27.7696H63.4827ZM64.3037 18.1292C64.021 18.1292 63.7781 18.035 63.5751 17.8465C63.3758 17.6544 63.2761 17.426 63.2761 17.1614C63.2761 16.8931 63.3758 16.6648 63.5751 16.4763C63.7781 16.2842 64.021 16.1881 64.3037 16.1881C64.5865 16.1881 64.8275 16.2842 65.0269 16.4763C65.2299 16.6648 65.3314 16.8931 65.3314 17.1614C65.3314 17.426 65.2299 17.6544 65.0269 17.8465C64.8275 18.035 64.5865 18.1292 64.3037 18.1292Z" fill="#292929"/>
<path d="M67.1425 30.9015V19.4179H68.7302V20.7717H68.8661C68.9604 20.5978 69.0963 20.3966 69.2739 20.1682C69.4515 19.9398 69.698 19.7405 70.0134 19.5701C70.3288 19.3961 70.7456 19.3091 71.264 19.3091C71.9382 19.3091 72.5399 19.4795 73.0692 19.8202C73.5984 20.161 74.0134 20.6521 74.3143 21.2937C74.6188 21.9353 74.771 22.7074 74.771 23.61C74.771 24.5126 74.6206 25.2865 74.3197 25.9318C74.0189 26.5734 73.6056 27.0682 73.08 27.4162C72.5544 27.7605 71.9545 27.9327 71.2803 27.9327C70.7728 27.9327 70.3578 27.8475 70.0351 27.6771C69.7162 27.5068 69.466 27.3074 69.2848 27.079C69.1035 26.8507 68.964 26.6477 68.8661 26.4701H68.7683V30.9015H67.1425ZM68.7356 23.5937C68.7356 24.1809 68.8208 24.6957 68.9912 25.1379C69.1615 25.5801 69.408 25.9263 69.7307 26.1764C70.0533 26.4229 70.4484 26.5462 70.916 26.5462C71.4017 26.5462 71.8077 26.4175 72.134 26.1601C72.4602 25.8991 72.7067 25.5457 72.8734 25.0999C73.0438 24.654 73.129 24.1519 73.129 23.5937C73.129 23.0427 73.0456 22.5479 72.8789 22.1093C72.7157 21.6707 72.4693 21.3245 72.1394 21.0708C71.8131 20.8171 71.4053 20.6902 70.916 20.6902C70.4448 20.6902 70.046 20.8116 69.7198 21.0545C69.3972 21.2974 69.1525 21.6363 68.9857 22.0713C68.819 22.5063 68.7356 23.0137 68.7356 23.5937Z" fill="#292929"/>
<path d="M75.911 16.2218V15.4454H79.5692V16.2218H78.2055V19.8996H77.2747V16.2218H75.911Z" fill="#292929"/>
<path d="M80.1717 15.4454H81.3331L82.5597 18.4381H82.6119L83.8386 15.4454H85V19.8996H84.0865V17.0005H84.0496L82.8968 19.8779H82.2748L81.1221 16.9896H81.0851V19.8996H80.1717V15.4454Z" fill="#292929"/>
<path d="M2.74612 0L5.57216 8.88349H5.68064L8.51239 0H11.2528L7.22212 11.6924H4.03639L0 0H2.74612Z" fill="#292929"/>
<path d="M13.6593 11.858C13.0998 11.858 12.6012 11.7609 12.1635 11.5668C11.7258 11.3689 11.3795 11.0777 11.1245 10.6933C10.8733 10.3051 10.7477 9.8217 10.7477 9.24317C10.7477 8.75598 10.8371 8.34683 11.016 8.01569C11.1949 7.68456 11.4385 7.41813 11.7468 7.21641C12.0551 7.01468 12.4052 6.86244 12.7972 6.75967C13.1931 6.65691 13.608 6.58459 14.0418 6.54272C14.5519 6.48944 14.9629 6.43996 15.275 6.39429C15.5871 6.34481 15.8136 6.27249 15.9544 6.17734C16.0953 6.08218 16.1657 5.94136 16.1657 5.75486V5.7206C16.1657 5.35902 16.0515 5.07927 15.8231 4.88135C15.5986 4.68343 15.2788 4.58447 14.864 4.58447C14.4263 4.58447 14.078 4.68153 13.8192 4.87564C13.5604 5.06595 13.3891 5.30573 13.3054 5.595L11.0559 5.41231C11.1701 4.87945 11.3947 4.41891 11.7296 4.03068C12.0646 3.63865 12.4966 3.33797 13.0256 3.12863C13.5585 2.91549 14.1751 2.80892 14.8754 2.80892C15.3626 2.80892 15.8288 2.86601 16.2741 2.98019C16.7233 3.09438 17.121 3.27136 17.4674 3.51115C17.8175 3.75093 18.0935 4.05923 18.2952 4.43604C18.4969 4.80904 18.5978 5.25625 18.5978 5.77769V11.6924H16.2913V10.4764H16.2228C16.0819 10.7504 15.8935 10.9921 15.6575 11.2014C15.4216 11.4069 15.138 11.5687 14.8069 11.6867C14.4757 11.8009 14.0932 11.858 13.6593 11.858ZM14.3559 10.1795C14.7136 10.1795 15.0295 10.1091 15.3036 9.96823C15.5776 9.8236 15.7927 9.62949 15.9487 9.3859C16.1048 9.14231 16.1828 8.86636 16.1828 8.55807V7.62747C16.1067 7.67695 16.002 7.72262 15.8688 7.76449C15.7394 7.80255 15.5928 7.83871 15.4292 7.87296C15.2655 7.90341 15.1019 7.93196 14.9382 7.9586C14.7745 7.98144 14.6261 8.00237 14.4929 8.0214C14.2074 8.06327 13.9581 8.12988 13.745 8.22122C13.5318 8.31257 13.3663 8.43627 13.2483 8.59232C13.1303 8.74457 13.0713 8.93487 13.0713 9.16324C13.0713 9.49437 13.1912 9.74748 13.431 9.92256C13.6746 10.0938 13.9829 10.1795 14.3559 10.1795Z" fill="#292929"/>
<path d="M20.0024 11.6924V2.9231H22.3203V4.47029H22.423C22.6057 3.95646 22.9102 3.55111 23.3365 3.25423C23.7628 2.95736 24.2728 2.80892 24.8666 2.80892C25.4679 2.80892 25.9799 2.95926 26.4023 3.25994C26.8248 3.55682 27.1065 3.96027 27.2473 4.47029H27.3387C27.5175 3.96788 27.8411 3.56634 28.3092 3.26565C28.7812 2.96116 29.3388 2.80892 29.982 2.80892C30.8003 2.80892 31.4645 3.06964 31.9745 3.59108C32.4883 4.10871 32.7452 4.84329 32.7452 5.79482V11.6924H30.3188V6.27439C30.3188 5.78721 30.1894 5.42182 29.9306 5.17823C29.6718 4.93464 29.3483 4.81284 28.9601 4.81284C28.5185 4.81284 28.1741 4.95367 27.9267 5.23532C27.6793 5.51317 27.5556 5.88046 27.5556 6.33719V11.6924H25.1977V6.22301C25.1977 5.79292 25.074 5.45037 24.8266 5.19536C24.583 4.94035 24.2614 4.81284 23.8618 4.81284C23.5915 4.81284 23.3479 4.88135 23.131 5.01837C22.9178 5.15159 22.7485 5.33999 22.6229 5.58358C22.4973 5.82337 22.4345 6.10502 22.4345 6.42854V11.6924H20.0024Z" fill="#292929"/>
<path d="M38.1462 11.8637C37.2594 11.8637 36.4925 11.6753 35.8454 11.2985C35.2022 10.9179 34.7055 10.3888 34.3554 9.71132C34.0052 9.03002 33.8301 8.24025 33.8301 7.34201C33.8301 6.43615 34.0052 5.64448 34.3554 4.96699C34.7055 4.28569 35.2022 3.75664 35.8454 3.37984C36.4925 2.99922 37.2594 2.80892 38.1462 2.80892C39.0331 2.80892 39.7981 2.99922 40.4413 3.37984C41.0884 3.75664 41.587 4.28569 41.9371 4.96699C42.2873 5.64448 42.4624 6.43615 42.4624 7.34201C42.4624 8.24025 42.2873 9.03002 41.9371 9.71132C41.587 10.3888 41.0884 10.9179 40.4413 11.2985C39.7981 11.6753 39.0331 11.8637 38.1462 11.8637ZM38.1577 9.97965C38.5611 9.97965 38.898 9.86547 39.1682 9.6371C39.4384 9.40493 39.6421 9.08902 39.7791 8.68938C39.9199 8.28973 39.9903 7.8349 39.9903 7.32488C39.9903 6.81486 39.9199 6.36003 39.7791 5.96039C39.6421 5.56074 39.4384 5.24484 39.1682 5.01266C38.898 4.78049 38.5611 4.6644 38.1577 4.6644C37.7504 4.6644 37.4079 4.78049 37.13 5.01266C36.856 5.24484 36.6485 5.56074 36.5077 5.96039C36.3707 6.36003 36.3022 6.81486 36.3022 7.32488C36.3022 7.8349 36.3707 8.28973 36.5077 8.68938C36.6485 9.08902 36.856 9.40493 37.13 9.6371C37.4079 9.86547 37.7504 9.97965 38.1577 9.97965Z" fill="#292929"/>
<path d="M52.9112 5.29116L52.5285 7.40151C51.6041 7.16724 48.9918 6.36042 48.9918 6.36042C47.1164 5.30524 46.0652 3.74658 45.8345 1.42024H49.8955L52.9112 5.29116Z" fill="#292929"/>
<path d="M52.5138 7.42763L52.9003 5.31728C51.8909 5.55156 48.9854 6.35893 48.9854 6.35893C46.726 7.4141 45.107 8.97222 44.0287 11.2986H48.0883L52.5138 7.42763Z" fill="#292929"/>
<path d="M59.1951 5.29116L58.8123 7.40151C57.888 7.16724 55.2757 6.36042 55.2757 6.36042C53.4003 5.30524 52.349 3.74658 52.1184 1.42024H56.1793L59.1951 5.29116Z" fill="#292929"/>
<path d="M58.7967 7.42763L59.1832 5.31728C58.1738 5.55156 55.2682 6.35893 55.2682 6.35893C53.0089 7.4141 51.3899 8.97222 50.3115 11.2986H54.3712L58.7967 7.42763Z" fill="#292929"/>
<path d="M65.4743 5.29113L65.0917 7.40146C64.1673 7.16719 61.5549 6.36038 61.5549 6.36038C59.6795 5.30521 58.6281 3.74656 58.3974 1.42024H62.4583L65.4743 5.29113Z" fill="#292929"/>
<path d="M65.0767 7.42763L65.4632 5.31728C64.4537 5.55156 61.5482 6.35893 61.5482 6.35893C59.2888 7.4141 57.6698 8.97222 56.5915 11.2986H60.6512L65.0767 7.42763Z" fill="#292929"/>
</svg>
